<?xml version="1.0" encoding="UTF-8"?>
<svg id="_レイヤー_1" xmlns="http://www.w3.org/2000/svg" version="1.1" viewBox="0 0 1400 2801.7">
  <!-- Generator: Adobe Illustrator 30.6.0, SVG Export Plug-In . SVG Version: 2.1.4 Build 109)  -->
  <defs>
    <style>
      .st0 {
        stroke: #ffe566;
      }

      .st0, .st1, .st2, .st3 {
        fill: none;
        stroke-linecap: round;
        stroke-miterlimit: 10;
        stroke-width: 9px;
      }

      .st4, .st5, .st6, .st7, .st8, .st9, .st10, .st11 {
        isolation: isolate;
      }

      .st4, .st5, .st6, .st8, .st10 {
        font-family: ArialMT, Arial;
      }

      .st4, .st5, .st8, .st10 {
        font-size: 14px;
      }

      .st4, .st6, .st11 {
        fill: #fff;
      }

      .st5, .st12 {
        fill: #ff9ad5;
      }

      .st6, .st11 {
        font-size: 18px;
      }

      .st7 {
        fill: #003a66;
        opacity: .9;
      }

      .st13 {
        fill: #0f65a3;
      }

      .st8, .st14 {
        fill: #ffe566;
      }

      .st1 {
        stroke: #7cffb2;
      }

      .st15 {
        fill: #ff3b30;
      }

      .st2 {
        stroke: #fff;
      }

      .st3 {
        stroke: #ff9ad5;
      }

      .st16, .st10 {
        fill: #7cffb2;
      }

      .st11 {
        font-family: Arial-BoldMT, Arial;
        font-weight: 700;
      }
    </style>
  </defs>
  <rect id="background" class="st13" y="1.4" width="1400" height="2800.3"/>
  <g id="line-01_deco-top-right">
    <path class="st2" d="M1104.3,6s-43.1-2.4-12.2,56.4c30.8,58.6,13.7,64-16.8,86.9"/>
  </g>
  <g id="line-main_translate-20">
    <g id="line-02A_main-seg1">
      <path class="st0" d="M345,10.9c-34.9,2.7-313.6,26.8-275.9,284.5,5.7,39,27.2,81,62.9,97.7,39.3,18.4,74.7,31.2,177.1,30.2,0,0,65.8-6.4,65.5,63.7,0,6.3-2.6,12.3-7.3,16.5-4.7,4.2-11,7.3-17.3,2.7-2.4-1.7-3.9-4.4-4.2-7.4-.8-6.5-.2-19,15.2-24.3,0,0,.5-.2,1.4-.5,25-8.2,52.3,3.3,64.1,26.8,15.7,31.4,48.5,82,96.3,81.4,61.7-.7,71.5,61,72.4,92.8.3,11-11.2,65.3-14.7,75.8-12,35.8-28.3,103.1-97.7,152.8-6.4,4.6-13.2,8.6-20.3,12.1"/>
    </g>
    <g id="line-02B_main-seg2">
      <path class="st1" d="M462.3,915.7c-7.9,3.8-16.1,7-24.5,9.4-38.9,11.2-159.6,41.3-211.3,56-68,19.4-149.7,64.6-143.4,184.6s146.9,168,236,222.8c33.4,20.6,65.3,16.3,98.2,12.9"/>
    </g>
    <g id="line-02C_main-seg3">
      <path class="st3" d="M417.2,1401.5c54.8-5.6,112.3-8.6,184.1,110.5,63.1,104.6,144,144.6,240,164,61.4,12.4,94-2,109.6-14,8.1-6.3,11.5-18.9,7-28.2-4.6-9.6-14-13.9-24.6-9.2-25,11.1-15.4,37.5-7.4,56.2s72.3,66.1,146.9,74.7c64.7,7.4,146.8,87.1,178.3,120.1,18.1,18.9,30.2,42.8,34,68.7,3.6,24.2,6.8,59.7-20.8,83.8-52.7,45.9-61.5,8.7-56-3.4,4.6-10.1,30.2-32.4,54.3,22.3,27.6,62.8-38.8,146.4-114.9,183.4-31.2,15.2-104,14.5-156,70.3-43,53.2,6,89.5-89.7,164.6-65.4,51.3-350,8-390,10"/>
    </g>
    <g id="join-markers">
      <g class="st9">
        <g class="st9">
          <text class="st6" transform="translate(330 15.4)"><tspan x="0" y="0">A start (292.6, 9.6)</tspan></text>
        </g>
      </g>
      <circle class="st15" cx="462.3" cy="915.7" r="10"/>
      <g class="st9">
        <g class="st9">
          <text class="st6" transform="translate(480 921.4)"><tspan x="0" y="0">A/B join (442.32, 914.28)</tspan></text>
        </g>
      </g>
      <circle class="st15" cx="417.2" cy="1401.5" r="10"/>
      <g class="st9">
        <g class="st9">
          <text class="st6" transform="translate(435 1407.5414)"><tspan x="0" y="0">B/C join (397.24, 1400.06)</tspan></text>
        </g>
      </g>
    </g>
  </g>
  <g id="line-03_end">
    <path class="st2" d="M468.8,2461.1s-119.2,5.5-207.4,91.4c-29.3,28.6-47.5,66.8-51.9,107.5-7.7,72.4,11.9,114.5,46.2,115.9,28.6,1.2,28.5-16.5,25.4-28-2.1-7.9-8.9-13.8-17-14.4-7.8-.6-15.5,4.1-11.8,27,2.8,17.4,17.1,26.5,33,31.3,22.9,6.9,47.5,3.9,68.5-7.6,33.7-18.4,105.6-47.1,175.7-6.6,96,55.4,145.7-24.6,149.1-26.3"/>
  </g>
  <g id="legend">
    <rect class="st7" x="339" y="236.4" width="420" height="150" rx="8" ry="8"/>
    <g class="st9">
      <g class="st9">
        <text class="st11" transform="translate(359 268.4)"><tspan x="0" y="0">philosophy line check</tspan></text>
      </g>
    </g>
    <rect class="st14" x="359" y="284.4" width="28" height="6"/>
    <g class="st9">
      <g class="st9">
        <text class="st8" transform="translate(395 292.4)"><tspan x="0" y="0">A = main seg1 (yellow cloud area)</tspan></text>
      </g>
    </g>
    <rect class="st16" x="359" y="308.4" width="28" height="6"/>
    <g class="st9">
      <g class="st9">
        <text class="st10" transform="translate(395 316.4)"><tspan x="0" y="0">B = main seg2</tspan></text>
      </g>
    </g>
    <rect class="st12" x="359" y="332.4" width="28" height="6"/>
    <g class="st9">
      <g class="st9">
        <text class="st5" transform="translate(395 340.4)"><tspan x="0" y="0">C = main seg3</tspan></text>
      </g>
    </g>
    <circle class="st15" cx="373" cy="362.4" r="6"/>
    <g class="st9">
      <g class="st9">
        <text class="st4" transform="translate(395 366.4)"><tspan x="0" y="0">red = path join points</tspan></text>
      </g>
    </g>
  </g>
</svg>